<svg xmlns="http://www.w3.org/2000/svg" height="800" width="1200" viewBox="-216.44595 -150.74625 1875.8649 904.4775"><g fill="#961a1f"><path d="M1402.533 400.324h-9.786v25.481h-8.56v-25.481h-9.8v-7.361h28.146v7.361m3.827-7.361h12.6l5.653 21.894h.094l5.666-21.894h12.6v32.842h-8.053v-24.929h-.093l-6.894 24.93h-6.533l-6.907-24.93h-.093v24.93h-8.04v-32.843m-342.616 30.989c-11.941 5.036-24 7.557-36.165 7.557-19.21 0-36.475-3.348-51.814-10.029-15.34-6.685-28.274-15.89-38.81-27.63-10.542-11.725-18.615-25.51-24.234-41.346-5.62-15.836-8.432-32.912-8.432-51.212 0-18.76 2.803-36.183 8.407-52.257 5.601-16.068 13.661-30.084 24.175-42.052 10.513-11.967 23.43-21.348 38.761-28.159 15.332-6.801 32.596-10.208 51.805-10.208 12.876 0 25.339 1.943 37.399 5.819 12.059 3.885 22.943 9.588 32.663 17.108 9.718 7.522 17.737 16.796 24.058 27.812 6.324 11.025 10.191 23.672 11.598 37.952h-52.68c-3.282-14.042-9.606-24.579-18.97-31.604-9.374-7.026-20.729-10.539-34.068-10.539-12.414 0-22.95 2.405-31.613 7.216-8.66 4.81-15.687 11.265-21.075 19.356-5.389 8.1-9.306 17.307-11.761 27.63-2.464 10.323-3.685 20.993-3.685 32.018 0 10.563 1.229 20.828 3.692 30.795 2.465 9.969 6.389 18.945 11.778 26.918 5.388 7.976 12.423 14.364 21.1 19.175 8.67 4.81 19.223 7.216 31.656 7.216 18.283 0 32.398-4.612 42.364-13.835 9.97-9.225 15.768-22.597 17.416-40.117h-55.492v-41.26h105.212v135.603h-35.009l-5.604-28.448c-9.835 12.645-20.73 21.489-32.672 26.521m162.704-248.988v204.177h122.232v46.548h-177.243V174.964h55.011"/><path d="M966.285 456.856c-84.17 51.193-210.234 80.331-350.892 80.331-253.414 0-458.849-105.523-458.849-235.696 0-130.171 205.435-235.696 458.85-235.696 141.171 0 267.75 29.68 351.922 81.193C875.44 60.678 710.709.028 522.361 0 233.895-.048.025 134.9 0 301.41c-.024 166.503 233.803 301.533 522.27 301.575 187.6.03 351.902-60.422 444.015-146.129"/><path d="M503.997 155.456L455.624 364.78l-58.41-209.324h-44.355l-58.28 209.327-48.518-209.327H200.36l71.776 272.84h42.879l60.381-214.3 59.653 214.3h43.003l74.299-272.84h-48.354m169.216 114.839c-6.717-9.454-15.118-16.73-24.977-21.63-10.137-5.04-21.89-7.593-34.93-7.593-14.678 0-27.902 2.661-39.305 7.91-10.813 4.98-20.044 12.3-27.436 21.76-13.681 17.507-20.913 42.175-20.913 71.331 0 12.978 1.841 25.154 5.472 36.194 3.652 11.098 9.043 20.841 16.023 28.952 14.676 17.053 35.598 26.068 60.506 26.068 13.079 0 23.758-1.368 32.64-4.182 7.764-2.456 12.923-5.638 17.148-8.429 5.446-3.592 10.447-8.008 14.871-13.119 3.755-4.34 7.099-9.188 9.941-14.406 5.09-9.348 7.554-18.08 8.114-22.718l.372-3.066h-35.632l-.196 2.525c-.899 11.576-16.094 32.257-43.164 32.257-38.699 0-47.919-27.976-48.531-52.61h129.559V346.8c0-15.886-1.626-30.392-4.832-43.116-3.279-13.016-8.234-24.25-14.73-33.39zm-64.001 2.926c28.703 0 44.048 15.45 46.843 47.207h-92.8c1.36-25.86 21.852-47.207 45.957-47.207m262.892 23.309c-3.45-11.023-8.537-20.737-15.112-28.873-6.79-8.398-15.027-14.93-24.477-19.414-9.867-4.682-20.927-7.055-32.871-7.055h-.044c-11.02.179-21.083 2.581-29.903 7.144-7.293 3.77-13.829 9.061-19.496 15.776v-83.704h-35.485v247.935h33.781v-16.875c2.966 3.88 6.776 7.973 11.824 11.59 9.582 6.867 21.435 10.347 35.231 10.347 14.839 0 28.067-3.309 39.323-9.84 10.032-5.818 18.525-14.202 25.246-24.914 5.868-9.352 10.334-20.367 13.267-32.74 2.535-10.696 3.876-22.4 3.876-33.846 0-12.646-1.736-24.6-5.16-35.53zm-31.885 40.26c0 19.465-3.915 35.778-11.326 47.177-7.889 12.144-19.338 18.298-34.024 18.298-21.234 0-46.03-14.849-46.03-56.697 0-20.044 2.477-35.465 7.572-47.153 7.357-16.875 19.716-25.078 37.777-25.078 19.22 0 32.075 7.534 39.297 23.03 5.967 12.806 6.734 28.329 6.734 40.422"/></g></svg>